{"title":"Terminator 2:Judgement Day(1991)MP-4[DaScubaDude]","uid":12572664,"size":1868832360,"categoryP":"video","categoryS":"movies","magnet":"?xt=urn:btih:ad03f728d41b0f5df647f696ae27fff3c7930ef1&amp;dn=Terminator+2%3AJudgement+Day%281991%29MP-4%5BDaScubaDude%5D&amp;tr=udp%3A%2F%2Ftracker.leechers-paradise.org%3A6969&amp;tr=udp%3A%2F%2Fzer0day.ch%3A1337&amp;tr=udp%3A%2F%2Fopen.demonii.com%3A1337&amp;tr=udp%3A%2F%2Ftracker.coppersurfer.tk%3A6969&amp;tr=udp%3A%2F%2Fexodus.desync.com%3A6969","seeders":1,"leechers":0,"uploader":"dascuba","files":1,"time":1444863530,"description":"Terminator 2: Judgment Day (1991)\r\nR  |  137 min  |  Action, Sci-Fi  |  3 July 1991 (USA)\r\n8.5 Your rating:   -/10   Ratings: 8.5/10 from 677,101 users   Metascore: 75/100 \r\nReviews: 951 user | 202 critic | 22 from Metacritic.com\r\nA cyborg, identical to the one who failed to kill Sarah Connor, must now protect her young son, John Connor, from a more advanced cyborg, made out of liquid metal.\r\n\r\nDirector: James Cameron\r\nWriters: James Cameron, William Wisher Jr. (as William Wisher)\r\nStars: Arnold Schwarzenegger, Linda Hamilton, Edward Furlong \r\n\r\nGeneral\r\nComplete name                            : C:Terminator 2TERMINATOR_2_EXTREME_DISC1_Title1.mp4\r\nFormat                                   : MPEG-4\r\nFormat profile                           : Base Media\r\nCodec ID                                 : isom\r\nFile size                                : 1.74 GiB\r\nDuration                                 : 2h 32mn\r\nOverall bit rate mode                    : Constant\r\nOverall bit rate                         : 1 633 Kbps\r\nMovie name                               : TERMINATOR_2_EXTREME_DISC1\r\nGenre                                    : Science_Fiction\r\nWriting application                      : Lavf54.6.100\r\n\r\nVideo\r\nID                                       : 1\r\nFormat                                   : MPEG-4 Visual\r\nFormat settings, BVOP                    : No\r\nFormat settings, QPel                    : No\r\nFormat settings, GMC                     : No warppoints\r\nFormat settings, Matrix                  : Default (H.263)\r\nCodec ID                                 : 20\r\nDuration                                 : 2h 32mn\r\nBit rate mode                            : Constant\r\nBit rate                                 : 1 500 Kbps\r\nWidth                                    : 720 pixels\r\nHeight                                   : 404 pixels\r\nDisplay aspect ratio                     : 16:9\r\nFrame rate mode                          : Constant\r\nFrame rate                               : 29.970 fps\r\nColor space                              : YUV\r\nChroma subsampling                       : 4:2:0\r\nBit depth                                : 8 bits\r\nScan type                                : Progressive\r\nCompression mode                         : Lossy\r\nBits/(Pixel*Frame)                       : 0.172\r\nStream size                              : 1.60 GiB (92%)\r\nWriting library                          : Lavc54.23.100\r\n\r\nAudio\r\nID                                       : 2\r\nFormat                                   : MPEG Audio\r\nFormat version                           : Version 1\r\nFormat profile                           : Layer 3\r\nCodec ID                                 : 6B\r\nDuration                                 : 2h 32mn\r\nBit rate mode                            : Constant\r\nBit rate                                 : 128 Kbps\r\nChannel(s)                               : 2 channels\r\nSampling rate                            : 44.1 KHz\r\nCompression mode                         : Lossy\r\nStream size                              : 140 MiB (8%)","torrent":{"xt":"urn:btih:ad03f728d41b0f5df647f696ae27fff3c7930ef1","amp;dn":"Terminator+2%3AJudgement+Day%281991%29MP-4%5BDaScubaDude%5D","amp;tr":["udp%3A%2F%2Ftracker.leechers-paradise.org%3A6969","udp%3A%2F%2Fzer0day.ch%3A1337","udp%3A%2F%2Fopen.demonii.com%3A1337","udp%3A%2F%2Ftracker.coppersurfer.tk%3A6969","udp%3A%2F%2Fexodus.desync.com%3A6969"],"infoHash":"ad03f728d41b0f5df647f696ae27fff3c7930ef1","infoHashBuffer":{"type":"Buffer","data":[173,3,247,40,212,27,15,93,246,71,246,150,174,39,255,243,199,147,14,241]},"announce":[],"urlList":[]}}